AdventPro-bld.ufo
<glyph name="comma" format="1">
  <advance width="188" height="962"/>
  <unicode hex="002C"/>
  <outline>
    <contour>
      <point x="61" y="-66" type="line"/>
      <point x="72" y="-48"/>
      <point x="75" y="-28"/>
      <point x="79" y="-8" type="curve"/>
      <point x="53" y="-2"/>
      <point x="34" y="22"/>
      <point x="34" y="50" type="curve" smooth="yes"/>
      <point x="34" y="82"/>
      <point x="61" y="110"/>
      <point x="95" y="110" type="curve" smooth="yes"/>
      <point x="127" y="110"/>
      <point x="153" y="82"/>
      <point x="153" y="50" type="curve"/>
      <point x="154" y="-41"/>
      <point x="84" y="-83"/>
      <point x="85" y="-83" type="curve"/>
    </contour>
  </outline>
</glyph>
<glyph name="period" format="1">
  <advance width="190" height="962"/>
  <unicode hex="002E"/>
  <outline>
    <contour>
      <point x="95" y="104" type="curve" smooth="yes"/>
      <point x="128" y="104"/>
      <point x="156" y="77"/>
      <point x="156" y="43" type="curve" smooth="yes"/>
      <point x="156" y="10"/>
      <point x="128" y="-17"/>
      <point x="95" y="-17" type="curve" smooth="yes"/>
      <point x="61" y="-17"/>
      <point x="35" y="10"/>
      <point x="35" y="43" type="curve" smooth="yes"/>
      <point x="35" y="77"/>
      <point x="61" y="104"/>
    </contour>
  </outline>
</glyph>
<glyph name="one" format="1">
  <advance width="286" height="962"/>
  <unicode hex="0031"/>
  <outline>
    <contour>
      <point x="18" y="629" type="line"/>
      <point x="16" y="630"/>
      <point x="97" y="646"/>
      <point x="133" y="700" type="curve"/>
      <point x="243" y="700" type="line"/>
      <point x="243" y="0" type="line"/>
      <point x="132" y="0" type="line"/>
      <point x="133" y="559" type="line"/>
      <point x="113" y="543"/>
      <point x="49" y="532"/>
      <point x="51" y="533" type="curve"/>
    </contour>
  </outline>
</glyph>
<glyph name="question" format="1">
  <advance width="427" height="962"/>
  <unicode hex="003F"/>
  <outline>
    <contour>
      <point x="26" y="533" type="line"/>
      <point x="26" y="655"/>
      <point x="119" y="710"/>
      <point x="207" y="710" type="curve" smooth="yes"/>
      <point x="311" y="710"/>
      <point x="397" y="637"/>
      <point x="397" y="523" type="curve" smooth="yes"/>
      <point x="397" y="457"/>
      <point x="362" y="414"/>
      <point x="319" y="366" type="curve" smooth="yes"/>
      <point x="266" y="308"/>
      <point x="249" y="283"/>
      <point x="249" y="211" type="curve" smooth="yes"/>
      <point x="249" y="120" type="line"/>
      <point x="140" y="120" type="line"/>
      <point x="140" y="213" type="line" smooth="yes"/>
      <point x="140" y="299"/>
      <point x="178" y="356"/>
      <point x="216" y="401" type="curve" smooth="yes"/>
      <point x="252" y="445"/>
      <point x="286" y="482"/>
      <point x="286" y="527" type="curve" smooth="yes"/>
      <point x="286" y="567"/>
      <point x="256" y="605"/>
      <point x="208" y="605" type="curve" smooth="yes"/>
      <point x="173" y="605"/>
      <point x="140" y="582"/>
      <point x="140" y="533" type="curve"/>
    </contour>
    <contour>
      <point x="195" y="104" type="curve" smooth="yes"/>
      <point x="228" y="104"/>
      <point x="254" y="77"/>
      <point x="254" y="43" type="curve" smooth="yes"/>
      <point x="254" y="10"/>
      <point x="228" y="-17"/>
      <point x="195" y="-17" type="curve" smooth="yes"/>
      <point x="161" y="-17"/>
      <point x="135" y="10"/>
      <point x="135" y="43" type="curve" smooth="yes"/>
      <point x="135" y="77"/>
      <point x="161" y="104"/>
    </contour>
  </outline>
</glyph>
<glyph name="P" format="1">
  <advance width="509" height="962"/>
  <unicode hex="0050"/>
  <outline>
    <contour>
      <point x="259" y="700" type="line" smooth="yes"/>
      <point x="364" y="700"/>
      <point x="478" y="651"/>
      <point x="478" y="453" type="curve" smooth="yes"/>
      <point x="478" y="235"/>
      <point x="367" y="196"/>
      <point x="259" y="196" type="curve" smooth="yes"/>
      <point x="152" y="196" type="line"/>
      <point x="152" y="0" type="line"/>
      <point x="41" y="0" type="line"/>
      <point x="41" y="700" type="line"/>
    </contour>
    <contour>
      <point x="152" y="301" type="line"/>
      <point x="218" y="301" type="line" smooth="yes"/>
      <point x="322" y="301"/>
      <point x="366" y="318"/>
      <point x="366" y="453" type="curve" smooth="yes"/>
      <point x="366" y="579"/>
      <point x="321" y="590"/>
      <point x="218" y="590" type="curve" smooth="yes"/>
      <point x="152" y="590" type="line"/>
    </contour>
  </outline>
</glyph>
<glyph name="U" format="1">
  <advance width="501" height="962"/>
  <unicode hex="0055"/>
  <outline>
    <contour>
      <point x="461" y="186" type="line" smooth="yes"/>
      <point x="461" y="57"/>
      <point x="374" y="-11"/>
      <point x="251" y="-11" type="curve" smooth="yes"/>
      <point x="127" y="-11"/>
      <point x="39" y="57"/>
      <point x="39" y="186" type="curve" smooth="yes"/>
      <point x="39" y="700" type="line"/>
      <point x="150" y="700" type="line"/>
      <point x="150" y="205" type="line" smooth="yes"/>
      <point x="150" y="139"/>
      <point x="184" y="102"/>
      <point x="250" y="102" type="curve" smooth="yes"/>
      <point x="313" y="102"/>
      <point x="350" y="145"/>
      <point x="350" y="207" type="curve" smooth="yes"/>
      <point x="350" y="700" type="line"/>
      <point x="461" y="700" type="line"/>
    </contour>
  </outline>
</glyph>
<glyph name="b" format="1">
  <advance width="459" height="962"/>
  <unicode hex="0062"/>
  <outline>
    <contour>
      <point x="152" y="484" type="line"/>
      <point x="194" y="502"/>
      <point x="231" y="510"/>
      <point x="277" y="510" type="curve" smooth="yes"/>
      <point x="352" y="510"/>
      <point x="426" y="462"/>
      <point x="426" y="360" type="curve" smooth="yes"/>
      <point x="426" y="156" type="line" smooth="yes"/>
      <point x="426" y="25"/>
      <point x="332" y="-11"/>
      <point x="218" y="-11" type="curve" smooth="yes"/>
      <point x="159" y="-11"/>
      <point x="101" y="-3"/>
      <point x="41" y="0" type="curve"/>
      <point x="41" y="700" type="line"/>
      <point x="152" y="700" type="line"/>
    </contour>
    <contour>
      <point x="152" y="95" type="line"/>
      <point x="152" y="95"/>
      <point x="195" y="92"/>
      <point x="211" y="92" type="curve" smooth="yes"/>
      <point x="304" y="92"/>
      <point x="316" y="124"/>
      <point x="316" y="175" type="curve" smooth="yes"/>
      <point x="316" y="346" type="line" smooth="yes"/>
      <point x="316" y="384"/>
      <point x="277" y="395"/>
      <point x="247" y="395" type="curve" smooth="yes"/>
      <point x="200" y="395"/>
      <point x="162" y="378"/>
      <point x="152" y="371" type="curve"/>
    </contour>
  </outline>
</glyph>
<glyph name="h" format="1">
  <advance width="446" height="962"/>
  <unicode hex="0068"/>
  <outline>
    <contour>
      <point x="151" y="478" type="line"/>
      <point x="168" y="490"/>
      <point x="209" y="511"/>
      <point x="251" y="511" type="curve" smooth="yes"/>
      <point x="330" y="511"/>
      <point x="412" y="475"/>
      <point x="412" y="346" type="curve" smooth="yes"/>
      <point x="412" y="0" type="line"/>
      <point x="303" y="0" type="line"/>
      <point x="303" y="344" type="line" smooth="yes"/>
      <point x="303" y="382"/>
      <point x="274" y="410"/>
      <point x="231" y="410" type="curve" smooth="yes"/>
      <point x="208" y="410"/>
      <point x="183" y="403"/>
      <point x="151" y="387" type="curve"/>
      <point x="151" y="0" type="line"/>
      <point x="41" y="0" type="line"/>
      <point x="41" y="700" type="line"/>
      <point x="151" y="700" type="line"/>
    </contour>
  </outline>
</glyph>
<glyph name="k" format="1">
  <advance width="475" height="962"/>
  <unicode hex="006B"/>
  <outline>
    <contour>
      <point x="251" y="333" type="line"/>
      <point x="456" y="0" type="line"/>
      <point x="316" y="0" type="line"/>
      <point x="166" y="255" type="line"/>
      <point x="152" y="241" type="line"/>
      <point x="152" y="0" type="line"/>
      <point x="41" y="0" type="line"/>
      <point x="41" y="700" type="line"/>
      <point x="152" y="700" type="line"/>
      <point x="152" y="383" type="line"/>
      <point x="302" y="521" type="line"/>
      <point x="382" y="444" type="line"/>
    </contour>
  </outline>
</glyph>
<glyph name="r" format="1">
  <advance width="374" height="962"/>
  <unicode hex="0072"/>
  <outline>
    <contour>
      <point x="332" y="410" type="line"/>
      <point x="332" y="410"/>
      <point x="316" y="417"/>
      <point x="280" y="417" type="curve" smooth="yes"/>
      <point x="236" y="417"/>
      <point x="191" y="409"/>
      <point x="150" y="389" type="curve"/>
      <point x="150" y="0" type="line"/>
      <point x="39" y="0" type="line"/>
      <point x="39" y="501" type="line"/>
      <point x="150" y="501" type="line"/>
      <point x="150" y="481" type="line"/>
      <point x="183" y="503"/>
      <point x="226" y="516"/>
      <point x="269" y="516" type="curve" smooth="yes"/>
      <point x="300" y="516"/>
      <point x="327" y="509"/>
      <point x="348" y="501" type="curve"/>
    </contour>
  </outline>
</glyph>
<glyph name="u" format="1">
  <advance width="447" height="962"/>
  <unicode hex="0075"/>
  <outline>
    <contour>
      <point x="297" y="26" type="line"/>
      <point x="284" y="13"/>
      <point x="240" y="-7"/>
      <point x="198" y="-7" type="curve" smooth="yes"/>
      <point x="121" y="-7"/>
      <point x="37" y="29"/>
      <point x="37" y="158" type="curve" smooth="yes"/>
      <point x="37" y="501" type="line"/>
      <point x="149" y="501" type="line"/>
      <point x="149" y="160" type="line" smooth="yes"/>
      <point x="149" y="113"/>
      <point x="170" y="95"/>
      <point x="210" y="95" type="curve" smooth="yes"/>
      <point x="256" y="95"/>
      <point x="297" y="129"/>
      <point x="297" y="176" type="curve" smooth="yes"/>
      <point x="297" y="501" type="line"/>
      <point x="407" y="501" type="line"/>
      <point x="407" y="0" type="line"/>
      <point x="297" y="0" type="line"/>
    </contour>
  </outline>
</glyph>
<glyph name="cent" format="1">
  <advance width="385" height="962"/>
  <unicode hex="00A2"/>
  <outline>
    <component base="c"/>
    <contour>
      <point x="194" y="-114" type="line"/>
      <point x="194" y="625" type="line"/>
      <point x="280" y="625" type="line"/>
      <point x="280" y="-114" type="line"/>
    </contour>
  </outline>
</glyph>
<glyph name="currency" format="1">
  <advance width="499" height="962"/>
  <unicode hex="00A4"/>
  <outline>
    <contour>
      <point x="378" y="350" type="line"/>
      <point x="389" y="330"/>
      <point x="395" y="308"/>
      <point x="395" y="284" type="curve" smooth="yes"/>
      <point x="395" y="258"/>
      <point x="389" y="238"/>
      <point x="378" y="218" type="curve"/>
      <point x="466" y="132" type="line"/>
      <point x="401" y="68" type="line"/>
      <point x="314" y="154" type="line"/>
      <point x="296" y="144"/>
      <point x="272" y="138"/>
      <point x="249" y="138" type="curve" smooth="yes"/>
      <point x="225" y="138"/>
      <point x="203" y="145"/>
      <point x="183" y="155" type="curve"/>
      <point x="97" y="68" type="line"/>
      <point x="33" y="132" type="line"/>
      <point x="120" y="218" type="line"/>
      <point x="110" y="238"/>
      <point x="104" y="258"/>
      <point x="104" y="284" type="curve" smooth="yes"/>
      <point x="104" y="307"/>
      <point x="110" y="331"/>
      <point x="120" y="349" type="curve"/>
      <point x="33" y="436" type="line"/>
      <point x="97" y="500" type="line"/>
      <point x="183" y="412" type="line"/>
      <point x="203" y="424"/>
      <point x="225" y="429"/>
      <point x="249" y="429" type="curve" smooth="yes"/>
      <point x="273" y="429"/>
      <point x="295" y="423"/>
      <point x="315" y="412" type="curve"/>
      <point x="401" y="500" type="line"/>
      <point x="466" y="436" type="line"/>
    </contour>
    <contour>
      <point x="249" y="232" type="curve" smooth="yes"/>
      <point x="279" y="232"/>
      <point x="301" y="255"/>
      <point x="301" y="284" type="curve" smooth="yes"/>
      <point x="301" y="314"/>
      <point x="279" y="335"/>
      <point x="249" y="335" type="curve" smooth="yes"/>
      <point x="221" y="335"/>
      <point x="198" y="314"/>
      <point x="198" y="284" type="curve" smooth="yes"/>
      <point x="198" y="255"/>
      <point x="221" y="232"/>
    </contour>
  </outline>
</glyph>
<glyph name="registered" format="1">
  <advance width="785" height="962"/>
  <unicode hex="00AE"/>
  <outline>
    <contour>
      <point x="752" y="186" type="line" smooth="yes"/>
      <point x="752" y="1"/>
      <point x="602" y="-95"/>
      <point x="391" y="-95" type="curve" smooth="yes"/>
      <point x="182" y="-95"/>
      <point x="32" y="1"/>
      <point x="32" y="186" type="curve" smooth="yes"/>
      <point x="32" y="327" type="line" smooth="yes"/>
      <point x="32" y="512"/>
      <point x="182" y="605"/>
      <point x="391" y="605" type="curve" smooth="yes"/>
      <point x="602" y="605"/>
      <point x="752" y="512"/>
      <point x="752" y="327" type="curve" smooth="yes"/>
    </contour>
    <contour>
      <point x="650" y="289" type="line" smooth="yes"/>
      <point x="650" y="470"/>
      <point x="576" y="505"/>
      <point x="391" y="505" type="curve" smooth="yes"/>
      <point x="208" y="505"/>
      <point x="135" y="468"/>
      <point x="135" y="289" type="curve" smooth="yes"/>
      <point x="135" y="223" type="line" smooth="yes"/>
      <point x="135" y="44"/>
      <point x="208" y="7"/>
      <point x="391" y="7" type="curve" smooth="yes"/>
      <point x="576" y="7"/>
      <point x="650" y="42"/>
      <point x="650" y="223" type="curve" smooth="yes"/>
    </contour>
    <contour>
      <point x="428" y="444" type="line" smooth="yes"/>
      <point x="534" y="444"/>
      <point x="572" y="399"/>
      <point x="572" y="284" type="curve" smooth="yes"/>
      <point x="572" y="217"/>
      <point x="555" y="173"/>
      <point x="521" y="151" type="curve"/>
      <point x="574" y="61" type="line"/>
      <point x="447" y="61" type="line"/>
      <point x="416" y="129" type="line"/>
      <point x="342" y="129" type="line"/>
      <point x="342" y="61" type="line"/>
      <point x="232" y="61" type="line"/>
      <point x="232" y="444" type="line"/>
    </contour>
    <contour>
      <point x="420" y="234" type="line" smooth="yes"/>
      <point x="443" y="234"/>
      <point x="463" y="238"/>
      <point x="463" y="284" type="curve" smooth="yes"/>
      <point x="463" y="331"/>
      <point x="442" y="334"/>
      <point x="419" y="334" type="curve" smooth="yes"/>
      <point x="342" y="334" type="line"/>
      <point x="342" y="234" type="line"/>
    </contour>
  </outline>
</glyph>
<glyph name="AE" format="1">
  <advance width="758" height="962"/>
  <unicode hex="00C6"/>
  <outline>
    <contour>
      <point x="388" y="0" type="line"/>
      <point x="388" y="194" type="line"/>
      <point x="223" y="194" type="line"/>
      <point x="151" y="0" type="line"/>
      <point x="21" y="0" type="line"/>
      <point x="293" y="700" type="line"/>
      <point x="723" y="700" type="line"/>
      <point x="723" y="590" type="line"/>
      <point x="497" y="590" type="line"/>
      <point x="497" y="414" type="line"/>
      <point x="649" y="414" type="line"/>
      <point x="615" y="307" type="line"/>
      <point x="497" y="307" type="line"/>
      <point x="497" y="101" type="line"/>
      <point x="721" y="101" type="line"/>
      <point x="721" y="0" type="line"/>
    </contour>
    <contour>
      <point x="262" y="301" type="line"/>
      <point x="387" y="301" type="line"/>
      <point x="387" y="590" type="line"/>
      <point x="367" y="590" type="line"/>
    </contour>
  </outline>
</glyph>
<glyph name="Eth" format="1">
  <advance width="499" height="962"/>
  <unicode hex="00D0"/>
  <outline>
    <component base="D"/>
    <contour>
      <point x="122" y="309" type="line"/>
      <point x="122" y="414" type="line"/>
      <point x="289" y="414" type="line"/>
      <point x="258" y="309" type="line"/>
    </contour>
  </outline>
</glyph>
<glyph name="eth" format="1">
  <advance width="424" height="962"/>
  <unicode hex="00F0"/>
  <outline>
    <contour>
      <point x="161" y="632" type="curve"/>
      <point x="188" y="701" type="line"/>
      <point x="249" y="687"/>
      <point x="314" y="655"/>
      <point x="349" y="614" type="curve" smooth="yes"/>
      <point x="382" y="576"/>
      <point x="396" y="541"/>
      <point x="396" y="481" type="curve" smooth="yes"/>
      <point x="396" y="187" type="line" smooth="yes"/>
      <point x="396" y="60"/>
      <point x="330" y="-9"/>
      <point x="208" y="-9" type="curve" smooth="yes"/>
      <point x="93" y="-9"/>
      <point x="26" y="65"/>
      <point x="26" y="187" type="curve" smooth="yes"/>
      <point x="26" y="246" type="line" smooth="yes"/>
      <point x="26" y="369"/>
      <point x="85" y="433"/>
      <point x="196" y="433" type="curve" smooth="yes"/>
      <point x="228" y="433"/>
      <point x="264" y="425"/>
      <point x="286" y="409" type="curve"/>
      <point x="286" y="481" type="line" smooth="yes"/>
      <point x="286" y="596"/>
      <point x="159" y="632"/>
    </contour>
    <contour>
      <point x="137" y="261" type="curve" smooth="yes"/>
      <point x="137" y="181" type="line" smooth="yes"/>
      <point x="137" y="133"/>
      <point x="164" y="102"/>
      <point x="212" y="102" type="curve" smooth="yes"/>
      <point x="258" y="102"/>
      <point x="286" y="131"/>
      <point x="286" y="181" type="curve" smooth="yes"/>
      <point x="286" y="282" type="line" smooth="yes"/>
      <point x="286" y="319"/>
      <point x="243" y="334"/>
      <point x="202" y="334" type="curve" smooth="yes"/>
      <point x="158" y="334"/>
      <point x="137" y="307"/>
    </contour>
    <contour>
      <point x="385" y="660" type="line"/>
      <point x="207" y="481" type="line"/>
      <point x="156" y="532" type="line"/>
      <point x="335" y="711" type="line"/>
    </contour>
  </outline>
</glyph>
<glyph name="kgreenlandic" format="1">
  <advance width="476" height="962"/>
  <unicode hex="0138"/>
  <outline>
    <contour>
      <point x="358" y="160" type="line" smooth="yes"/>
      <point x="394" y="109"/>
      <point x="418" y="98"/>
      <point x="443" y="98" type="curve" smooth="yes"/>
      <point x="446" y="98" type="line"/>
      <point x="446" y="0" type="line"/>
      <point x="410" y="0" type="line" smooth="yes"/>
      <point x="334" y="0"/>
      <point x="295" y="55"/>
      <point x="256" y="111" type="curve" smooth="yes"/>
      <point x="178" y="220" type="line"/>
      <point x="151" y="196" type="line"/>
      <point x="151" y="0" type="line"/>
      <point x="40" y="0" type="line"/>
      <point x="40" y="512" type="line"/>
      <point x="151" y="500" type="line"/>
      <point x="151" y="334" type="line"/>
      <point x="305" y="500" type="line"/>
      <point x="441" y="500" type="line"/>
      <point x="259" y="301" type="line"/>
    </contour>
  </outline>
</glyph>
<glyph name="lslash" format="1">
  <advance width="377" height="962"/>
  <unicode hex="0142"/>
  <outline>
    <component base="l" xOffset="87"/>
    <contour>
      <point x="315" y="490" type="line"/>
      <point x="351" y="410" type="line"/>
      <point x="59" y="278" type="line"/>
      <point x="22" y="359" type="line"/>
    </contour>
  </outline>
</glyph>
<glyph name="dotlessj" format="1">
  <advance width="251" height="962"/>
  <unicode hex="0237"/>
  <outline>
    <contour>
      <point x="210" y="-61" type="line" smooth="yes"/>
      <point x="210" y="-151"/>
      <point x="151" y="-216"/>
      <point x="59" y="-216" type="curve"/>
      <point x="29" y="-126" type="line"/>
      <point x="72" y="-116"/>
      <point x="100" y="-100"/>
      <point x="100" y="-50" type="curve" smooth="yes"/>
      <point x="100" y="401" type="line"/>
      <point x="28" y="408" type="line"/>
      <point x="28" y="501" type="line"/>
      <point x="210" y="501" type="line"/>
    </contour>
  </outline>
</glyph>
<glyph name="dieresiscomb" format="1">
  <advance width="267" height="962"/>
  <unicode hex="0308"/>
  <outline>
    <contour>
      <point x="54" y="769" type="curve" smooth="yes"/>
      <point x="88" y="769"/>
      <point x="114" y="742"/>
      <point x="114" y="710" type="curve" smooth="yes"/>
      <point x="114" y="677"/>
      <point x="88" y="650"/>
      <point x="54" y="650" type="curve" smooth="yes"/>
      <point x="21" y="650"/>
      <point x="-6" y="677"/>
      <point x="-6" y="710" type="curve" smooth="yes"/>
      <point x="-6" y="742"/>
      <point x="21" y="769"/>
    </contour>
    <contour>
      <point x="213" y="769" type="curve" smooth="yes"/>
      <point x="246" y="769"/>
      <point x="273" y="742"/>
      <point x="273" y="710" type="curve" smooth="yes"/>
      <point x="273" y="677"/>
      <point x="246" y="650"/>
      <point x="213" y="650" type="curve" smooth="yes"/>
      <point x="179" y="650"/>
      <point x="153" y="677"/>
      <point x="153" y="710" type="curve" smooth="yes"/>
      <point x="153" y="742"/>
      <point x="179" y="769"/>
    </contour>
  </outline>
</glyph>
<glyph name="Lambda" format="1">
  <advance width="550" height="962"/>
  <unicode hex="039B"/>
  <outline>
    <contour>
      <point x="272" y="465" type="line"/>
      <point x="147" y="0" type="line"/>
      <point x="22" y="0" type="line"/>
      <point x="223" y="700" type="line"/>
      <point x="324" y="700" type="line"/>
      <point x="529" y="0" type="line"/>
      <point x="401" y="0" type="line"/>
    </contour>
  </outline>
</glyph>
<glyph name="Sigma" format="1">
  <advance width="525" height="962"/>
  <unicode hex="03A3"/>
  <outline>
    <contour>
      <point x="317" y="101" type="line" smooth="yes"/>
      <point x="369" y="101"/>
      <point x="399" y="109"/>
      <point x="412" y="151" type="curve"/>
      <point x="494" y="107" type="line"/>
      <point x="472" y="32"/>
      <point x="428" y="0"/>
      <point x="349" y="0" type="curve" smooth="yes"/>
      <point x="25" y="0" type="line"/>
      <point x="251" y="385" type="line"/>
      <point x="41" y="701" type="line"/>
      <point x="471" y="701" type="line"/>
      <point x="436" y="586" type="line"/>
      <point x="245" y="586" type="line"/>
      <point x="379" y="387" type="line"/>
      <point x="210" y="101" type="line"/>
    </contour>
  </outline>
</glyph>
<glyph name="delta" format="1">
  <advance width="437" height="962"/>
  <unicode hex="03B4"/>
  <outline>
    <contour>
      <point x="212" y="590" type="line" smooth="yes"/>
      <point x="204" y="590"/>
      <point x="191" y="583"/>
      <point x="191" y="571" type="curve" smooth="yes"/>
      <point x="191" y="565"/>
      <point x="193" y="561"/>
      <point x="200" y="555" type="curve" smooth="yes"/>
      <point x="260" y="505"/>
      <point x="332" y="464"/>
      <point x="377" y="398" type="curve" smooth="yes"/>
      <point x="397" y="369"/>
      <point x="404" y="328"/>
      <point x="404" y="281" type="curve" smooth="yes"/>
      <point x="404" y="184" type="line" smooth="yes"/>
      <point x="404" y="58"/>
      <point x="330" y="-11"/>
      <point x="218" y="-11" type="curve" smooth="yes"/>
      <point x="94" y="-11"/>
      <point x="30" y="59"/>
      <point x="30" y="184" type="curve" smooth="yes"/>
      <point x="30" y="281" type="line" smooth="yes"/>
      <point x="30" y="366"/>
      <point x="65" y="442"/>
      <point x="155" y="460" type="curve"/>
      <point x="132" y="481" type="line" smooth="yes"/>
      <point x="99" y="510"/>
      <point x="84" y="541"/>
      <point x="84" y="575" type="curve" smooth="yes"/>
      <point x="84" y="665"/>
      <point x="169" y="702"/>
      <point x="252" y="702" type="curve" smooth="yes"/>
      <point x="369" y="702" type="line"/>
      <point x="348" y="590" type="line"/>
    </contour>
    <contour>
      <point x="291" y="290" type="line" smooth="yes"/>
      <point x="291" y="306"/>
      <point x="297" y="341"/>
      <point x="251" y="382" type="curve" smooth="yes"/>
      <point x="235" y="396" type="line"/>
      <point x="175" y="384"/>
      <point x="145" y="349"/>
      <point x="145" y="288" type="curve" smooth="yes"/>
      <point x="145" y="176" type="line" smooth="yes"/>
      <point x="145" y="135"/>
      <point x="164" y="98"/>
      <point x="217" y="98" type="curve" smooth="yes"/>
      <point x="271" y="98"/>
      <point x="291" y="135"/>
      <point x="291" y="176" type="curve" smooth="yes"/>
    </contour>
  </outline>
</glyph>
<glyph name="zeta" format="1">
  <advance width="439" height="962"/>
  <unicode hex="03B6"/>
  <outline>
    <contour>
      <point x="416" y="600" type="line"/>
      <point x="372" y="567"/>
      <point x="326" y="521"/>
      <point x="285" y="471" type="curve" smooth="yes"/>
      <point x="229" y="403"/>
      <point x="146" y="280"/>
      <point x="146" y="191" type="curve" smooth="yes"/>
      <point x="146" y="165"/>
      <point x="152" y="139"/>
      <point x="177" y="120" type="curve" smooth="yes"/>
      <point x="223" y="82"/>
      <point x="325" y="92"/>
      <point x="392" y="92" type="curve"/>
      <point x="392" y="-216" type="line"/>
      <point x="282" y="-191" type="line"/>
      <point x="282" y="-6" type="line"/>
      <point x="195" y="-12"/>
      <point x="124" y="5"/>
      <point x="79" y="50" type="curve" smooth="yes"/>
      <point x="46" y="82"/>
      <point x="28" y="129"/>
      <point x="28" y="185" type="curve" smooth="yes"/>
      <point x="28" y="304"/>
      <point x="109" y="437"/>
      <point x="187" y="523" type="curve" smooth="yes"/>
      <point x="201" y="539"/>
      <point x="202" y="542"/>
      <point x="248" y="590" type="curve"/>
      <point x="98" y="590" type="line"/>
      <point x="98" y="700" type="line"/>
      <point x="369" y="700" type="line"/>
    </contour>
  </outline>
</glyph>
<glyph name="xi" format="1">
  <advance width="438" height="962"/>
  <unicode hex="03BE"/>
  <outline>
    <contour>
      <point x="372" y="588" type="line"/>
      <point x="257" y="588" type="line" smooth="yes"/>
      <point x="219" y="588"/>
      <point x="197" y="560"/>
      <point x="197" y="531" type="curve" smooth="yes"/>
      <point x="197" y="479"/>
      <point x="242" y="439"/>
      <point x="316" y="412" type="curve" smooth="yes"/>
      <point x="366" y="393" type="line"/>
      <point x="347" y="312" type="line"/>
      <point x="197" y="312" type="line" smooth="yes"/>
      <point x="167" y="312"/>
      <point x="142" y="297"/>
      <point x="142" y="258" type="curve" smooth="yes"/>
      <point x="142" y="175" type="line" smooth="yes"/>
      <point x="142" y="125"/>
      <point x="155" y="87"/>
      <point x="231" y="87" type="curve" smooth="yes"/>
      <point x="294" y="87"/>
      <point x="329" y="91"/>
      <point x="392" y="93" type="curve"/>
      <point x="392" y="-217" type="line"/>
      <point x="279" y="-192" type="line"/>
      <point x="279" y="-7" type="line"/>
      <point x="260" y="-9"/>
      <point x="237" y="-10"/>
      <point x="207" y="-10" type="curve" smooth="yes"/>
      <point x="109" y="-10"/>
      <point x="30" y="29"/>
      <point x="30" y="156" type="curve" smooth="yes"/>
      <point x="30" y="256" type="line" smooth="yes"/>
      <point x="30" y="358"/>
      <point x="90" y="405"/>
      <point x="163" y="405" type="curve" smooth="yes"/>
      <point x="180" y="405" type="line"/>
      <point x="108" y="447"/>
      <point x="92" y="507"/>
      <point x="92" y="546" type="curve" smooth="yes"/>
      <point x="92" y="628"/>
      <point x="151" y="702"/>
      <point x="248" y="702" type="curve" smooth="yes"/>
      <point x="394" y="702" type="line"/>
    </contour>
  </outline>
</glyph>
<glyph name="pi" format="1">
  <advance width="470" height="962"/>
  <unicode hex="03C0"/>
  <outline>
    <contour>
      <point x="416" y="106" type="line" smooth="yes"/>
      <point x="416" y="85"/>
      <point x="430" y="72"/>
      <point x="446" y="62" type="curve"/>
      <point x="381" y="-17" type="line"/>
      <point x="383" y="-16"/>
      <point x="307" y="4"/>
      <point x="307" y="84" type="curve" smooth="yes"/>
      <point x="308" y="397" type="line"/>
      <point x="150" y="397" type="line"/>
      <point x="150" y="0" type="line"/>
      <point x="39" y="0" type="line"/>
      <point x="39" y="501" type="line"/>
      <point x="416" y="501" type="line"/>
    </contour>
  </outline>
</glyph>
<glyph name="rho" format="1">
  <advance width="439" height="962"/>
  <unicode hex="03C1"/>
  <outline>
    <contour>
      <point x="406" y="171" type="line" smooth="yes"/>
      <point x="406" y="49"/>
      <point x="348" y="-17"/>
      <point x="237" y="-17" type="curve" smooth="yes"/>
      <point x="204" y="-17"/>
      <point x="171" y="-7"/>
      <point x="147" y="7" type="curve"/>
      <point x="147" y="-217" type="line"/>
      <point x="36" y="-193" type="line"/>
      <point x="36" y="312" type="line" smooth="yes"/>
      <point x="36" y="439"/>
      <point x="103" y="508"/>
      <point x="225" y="508" type="curve" smooth="yes"/>
      <point x="340" y="508"/>
      <point x="406" y="434"/>
      <point x="406" y="312" type="curve" smooth="yes"/>
    </contour>
    <contour>
      <point x="296" y="318" type="line" smooth="yes"/>
      <point x="296" y="366"/>
      <point x="269" y="397"/>
      <point x="221" y="397" type="curve" smooth="yes"/>
      <point x="174" y="397"/>
      <point x="147" y="369"/>
      <point x="147" y="318" type="curve" smooth="yes"/>
      <point x="147" y="133" type="line" smooth="yes"/>
      <point x="147" y="97"/>
      <point x="198" y="82"/>
      <point x="231" y="82" type="curve" smooth="yes"/>
      <point x="274" y="82"/>
      <point x="296" y="110"/>
      <point x="296" y="156" type="curve" smooth="yes"/>
    </contour>
  </outline>
</glyph>
<glyph name="sigma" format="1">
  <advance width="471" height="962"/>
  <unicode hex="03C3"/>
  <outline>
    <contour>
      <point x="471" y="468" type="line"/>
      <point x="443" y="428"/>
      <point x="407" y="412"/>
      <point x="376" y="408" type="curve"/>
      <point x="392" y="386"/>
      <point x="401" y="356"/>
      <point x="401" y="317" type="curve" smooth="yes"/>
      <point x="401" y="185" type="line" smooth="yes"/>
      <point x="401" y="67"/>
      <point x="341" y="-10"/>
      <point x="219" y="-10" type="curve" smooth="yes"/>
      <point x="86" y="-10"/>
      <point x="30" y="83"/>
      <point x="30" y="185" type="curve" smooth="yes"/>
      <point x="30" y="321" type="line" smooth="yes"/>
      <point x="30" y="471"/>
      <point x="131" y="512"/>
      <point x="217" y="512" type="curve" smooth="yes"/>
      <point x="258" y="512"/>
      <point x="298" y="502"/>
      <point x="339" y="504" type="curve" smooth="yes"/>
      <point x="359" y="505"/>
      <point x="393" y="522"/>
      <point x="414" y="544" type="curve"/>
    </contour>
    <contour>
      <point x="287" y="323" type="line" smooth="yes"/>
      <point x="287" y="360"/>
      <point x="279" y="390"/>
      <point x="263" y="414" type="curve"/>
      <point x="249" y="417"/>
      <point x="240" y="418"/>
      <point x="227" y="418" type="curve" smooth="yes"/>
      <point x="189" y="418"/>
      <point x="141" y="397"/>
      <point x="141" y="331" type="curve" smooth="yes"/>
      <point x="141" y="177" type="line" smooth="yes"/>
      <point x="141" y="136"/>
      <point x="163" y="99"/>
      <point x="216" y="99" type="curve" smooth="yes"/>
      <point x="268" y="99"/>
      <point x="287" y="132"/>
      <point x="287" y="177" type="curve" smooth="yes"/>
    </contour>
  </outline>
</glyph>
<glyph name="uni0414" format="1">
  <advance width="590" height="962"/>
  <unicode hex="0414"/>
  <outline>
    <contour>
      <point x="518" y="109" type="line"/>
      <point x="580" y="109" type="line"/>
      <point x="580" y="-106" type="line"/>
      <point x="488" y="-106" type="line"/>
      <point x="467" y="-1" type="line"/>
      <point x="126" y="-1" type="line"/>
      <point x="105" y="-106" type="line"/>
      <point x="13" y="-106" type="line"/>
      <point x="13" y="109" type="line"/>
      <point x="69" y="109" type="line"/>
      <point x="210" y="557" type="line" smooth="yes"/>
      <point x="230" y="621"/>
      <point x="256" y="701"/>
      <point x="376" y="701" type="curve"/>
      <point x="518" y="701" type="line"/>
    </contour>
    <contour>
      <point x="407" y="109" type="line"/>
      <point x="407" y="607" type="line"/>
      <point x="393" y="607" type="line" smooth="yes"/>
      <point x="361" y="607"/>
      <point x="335" y="602"/>
      <point x="320" y="552" type="curve" smooth="yes"/>
      <point x="186" y="109" type="line"/>
    </contour>
  </outline>
</glyph>
<glyph name="uni0426" format="1">
  <advance width="603" height="962"/>
  <unicode hex="0426"/>
  <outline>
    <contour>
      <point x="471" y="110" type="line"/>
      <point x="579" y="110" type="line"/>
      <point x="579" y="-125" type="line"/>
      <point x="487" y="-125" type="line"/>
      <point x="466" y="0" type="line"/>
      <point x="40" y="0" type="line"/>
      <point x="40" y="700" type="line"/>
      <point x="151" y="700" type="line"/>
      <point x="151" y="110" type="line"/>
      <point x="362" y="110" type="line"/>
      <point x="362" y="700" type="line"/>
      <point x="471" y="700" type="line"/>
    </contour>
  </outline>
</glyph>
<glyph name="uni042D" format="1">
  <advance width="427" height="962"/>
  <unicode hex="042D"/>
  <outline>
    <contour>
      <point x="90" y="584" type="curve"/>
      <point x="60" y="677" type="line"/>
      <point x="108" y="701"/>
      <point x="156" y="712"/>
      <point x="204" y="712" type="curve" smooth="yes"/>
      <point x="314" y="712"/>
      <point x="397" y="643"/>
      <point x="397" y="511" type="curve" smooth="yes"/>
      <point x="397" y="184" type="line" smooth="yes"/>
      <point x="397" y="58"/>
      <point x="323" y="-12"/>
      <point x="199" y="-12" type="curve" smooth="yes"/>
      <point x="148" y="-12"/>
      <point x="94" y="1"/>
      <point x="36" y="23" type="curve"/>
      <point x="52" y="128" type="line"/>
      <point x="69" y="119"/>
      <point x="132" y="101"/>
      <point x="193" y="101" type="curve" smooth="yes"/>
      <point x="253" y="101"/>
      <point x="286" y="124"/>
      <point x="286" y="186" type="curve" smooth="yes"/>
      <point x="286" y="514" type="line" smooth="yes"/>
      <point x="286" y="576"/>
      <point x="250" y="601"/>
      <point x="184" y="601" type="curve" smooth="yes"/>
      <point x="153" y="601"/>
      <point x="116" y="594"/>
    </contour>
    <contour>
      <point x="340" y="414" type="line"/>
      <point x="340" y="309" type="line"/>
      <point x="180" y="309" type="line"/>
      <point x="149" y="414" type="line"/>
    </contour>
  </outline>
</glyph>
<glyph name="uni044D" format="1">
  <advance width="378" height="962"/>
  <unicode hex="044D"/>
  <outline>
    <contour>
      <point x="50" y="393" type="curve"/>
      <point x="25" y="479" type="line"/>
      <point x="66" y="498"/>
      <point x="111" y="511"/>
      <point x="155" y="512" type="curve" smooth="yes"/>
      <point x="279" y="515"/>
      <point x="346" y="433"/>
      <point x="346" y="320" type="curve" smooth="yes"/>
      <point x="346" y="174" type="line" smooth="yes"/>
      <point x="346" y="45"/>
      <point x="269" y="-8"/>
      <point x="154" y="-12" type="curve" smooth="yes"/>
      <point x="109" y="-13"/>
      <point x="64" y="-6"/>
      <point x="23" y="5" type="curve"/>
      <point x="43" y="95" type="line"/>
      <point x="42" y="95"/>
      <point x="89" y="84"/>
      <point x="132" y="84" type="curve" smooth="yes"/>
      <point x="194" y="84"/>
      <point x="236" y="113"/>
      <point x="236" y="175" type="curve" smooth="yes"/>
      <point x="236" y="332" type="line" smooth="yes"/>
      <point x="236" y="393"/>
      <point x="191" y="420"/>
      <point x="133" y="416" type="curve" smooth="yes"/>
      <point x="104" y="414"/>
      <point x="74" y="405"/>
    </contour>
    <contour>
      <point x="104" y="196" type="line"/>
      <point x="73" y="301" type="line"/>
      <point x="321" y="301" type="line"/>
      <point x="321" y="196" type="line"/>
    </contour>
  </outline>
</glyph>
<glyph name="uni0462" format="1">
  <advance width="477" height="962"/>
  <unicode hex="0462"/>
  <outline>
    <component base="uni042C" xOffset="25"/>
    <contour>
      <point x="0" y="641" type="line"/>
      <point x="289" y="641" type="line"/>
      <point x="289" y="550" type="line"/>
      <point x="0" y="550" type="line"/>
    </contour>
  </outline>
</glyph>
<glyph name="uni046A" format="1">
  <advance width="602" height="962"/>
  <unicode hex="046A"/>
  <outline>
    <contour>
      <point x="386" y="376" type="line" smooth="yes"/>
      <point x="504" y="376"/>
      <point x="563" y="299"/>
      <point x="563" y="183" type="curve" smooth="yes"/>
      <point x="563" y="0" type="line"/>
      <point x="456" y="0" type="line"/>
      <point x="456" y="165" type="line" smooth="yes"/>
      <point x="456" y="258"/>
      <point x="433" y="283"/>
      <point x="373" y="283" type="curve" smooth="yes"/>
      <point x="353" y="283" type="line"/>
      <point x="353" y="0" type="line"/>
      <point x="241" y="0" type="line"/>
      <point x="241" y="283" type="line"/>
      <point x="222" y="283" type="line" smooth="yes"/>
      <point x="159" y="283"/>
      <point x="146" y="257"/>
      <point x="146" y="167" type="curve" smooth="yes"/>
      <point x="146" y="0" type="line"/>
      <point x="36" y="0" type="line"/>
      <point x="36" y="183" type="line" smooth="yes"/>
      <point x="36" y="300"/>
      <point x="98" y="376"/>
      <point x="210" y="376" type="curve" smooth="yes"/>
      <point x="225" y="376" type="line"/>
      <point x="62" y="700" type="line"/>
      <point x="535" y="700" type="line"/>
      <point x="373" y="376" type="line"/>
    </contour>
    <contour>
      <point x="299" y="434" type="line"/>
      <point x="377" y="609" type="line"/>
      <point x="220" y="609" type="line"/>
    </contour>
  </outline>
</glyph>
<glyph name="uni04A1" format="1">
  <advance width="546" height="962"/>
  <unicode hex="04A1"/>
  <outline>
    <contour>
      <point x="0" y="500" type="line"/>
      <point x="181" y="500" type="line"/>
      <point x="181" y="393" type="line"/>
      <point x="120" y="393" type="line"/>
      <point x="0" y="395" type="line"/>
    </contour>
    <contour>
      <point x="438" y="160" type="line" smooth="yes"/>
      <point x="474" y="109"/>
      <point x="498" y="98"/>
      <point x="523" y="98" type="curve" smooth="yes"/>
      <point x="526" y="98" type="line"/>
      <point x="526" y="0" type="line"/>
      <point x="490" y="0" type="line" smooth="yes"/>
      <point x="414" y="0"/>
      <point x="375" y="55"/>
      <point x="336" y="111" type="curve" smooth="yes"/>
      <point x="258" y="220" type="line"/>
      <point x="231" y="196" type="line"/>
      <point x="231" y="0" type="line"/>
      <point x="120" y="0" type="line"/>
      <point x="120" y="500" type="line"/>
      <point x="231" y="500" type="line"/>
      <point x="231" y="334" type="line"/>
      <point x="385" y="500" type="line"/>
      <point x="521" y="500" type="line"/>
      <point x="339" y="301" type="line"/>
    </contour>
  </outline>
</glyph>
<glyph name="uni04A3" format="1">
  <advance width="534" height="962"/>
  <unicode hex="04A3"/>
  <outline>
    <component base="uni043D"/>
    <contour>
      <point x="356" y="110" type="line"/>
      <point x="520" y="110" type="line"/>
      <point x="520" y="-125" type="line"/>
      <point x="428" y="-125" type="line"/>
      <point x="407" y="0" type="line"/>
      <point x="356" y="0" type="line"/>
    </contour>
  </outline>
</glyph>
<glyph name="quotesinglbase" format="1">
  <advance width="189" height="962"/>
  <unicode hex="201A"/>
  <outline>
    <contour>
      <point x="62" y="-73" type="line"/>
      <point x="73" y="-55"/>
      <point x="78" y="-34"/>
      <point x="79" y="-15" type="curve"/>
      <point x="54" y="-9"/>
      <point x="35" y="15"/>
      <point x="35" y="43" type="curve" smooth="yes"/>
      <point x="35" y="77"/>
      <point x="61" y="103"/>
      <point x="95" y="103" type="curve" smooth="yes"/>
      <point x="128" y="103"/>
      <point x="154" y="77"/>
      <point x="154" y="43" type="curve"/>
      <point x="155" y="-48"/>
      <point x="85" y="-89"/>
      <point x="86" y="-89" type="curve"/>
    </contour>
  </outline>
</glyph>
<glyph name="ellipsis" format="1">
  <advance width="544" height="962"/>
  <unicode hex="2026"/>
  <outline>
    <contour>
      <point x="95" y="101" type="curve" smooth="yes"/>
      <point x="128" y="101"/>
      <point x="154" y="74"/>
      <point x="154" y="40" type="curve" smooth="yes"/>
      <point x="154" y="7"/>
      <point x="128" y="-19"/>
      <point x="95" y="-19" type="curve" smooth="yes"/>
      <point x="61" y="-19"/>
      <point x="35" y="7"/>
      <point x="35" y="40" type="curve" smooth="yes"/>
      <point x="35" y="74"/>
      <point x="61" y="101"/>
    </contour>
    <contour>
      <point x="269" y="101" type="curve" smooth="yes"/>
      <point x="303" y="101"/>
      <point x="329" y="74"/>
      <point x="329" y="40" type="curve" smooth="yes"/>
      <point x="329" y="7"/>
      <point x="303" y="-19"/>
      <point x="269" y="-19" type="curve" smooth="yes"/>
      <point x="237" y="-19"/>
      <point x="211" y="7"/>
      <point x="211" y="40" type="curve" smooth="yes"/>
      <point x="211" y="74"/>
      <point x="237" y="101"/>
    </contour>
    <contour>
      <point x="449" y="101" type="curve" smooth="yes"/>
      <point x="482" y="101"/>
      <point x="510" y="74"/>
      <point x="510" y="40" type="curve" smooth="yes"/>
      <point x="510" y="7"/>
      <point x="482" y="-19"/>
      <point x="449" y="-19" type="curve" smooth="yes"/>
      <point x="415" y="-19"/>
      <point x="390" y="7"/>
      <point x="390" y="40" type="curve" smooth="yes"/>
      <point x="390" y="74"/>
      <point x="415" y="101"/>
    </contour>
  </outline>
</glyph>
<glyph name="uni20B4" format="1">
  <advance width="546" height="962"/>
  <unicode hex="20B4"/>
  <outline>
    <contour>
      <point x="39" y="437" type="line"/>
      <point x="50" y="491" type="line"/>
      <point x="472" y="407" type="line"/>
      <point x="461" y="353" type="line"/>
    </contour>
    <contour>
      <point x="20" y="340" type="line"/>
      <point x="31" y="394" type="line"/>
      <point x="452" y="310" type="line"/>
      <point x="442" y="256" type="line"/>
    </contour>
    <contour>
      <point x="120" y="581" type="curve"/>
      <point x="89" y="673" type="line"/>
      <point x="138" y="699"/>
      <point x="194" y="710"/>
      <point x="249" y="710" type="curve" smooth="yes"/>
      <point x="350" y="710"/>
      <point x="477" y="663"/>
      <point x="477" y="535" type="curve" smooth="yes"/>
      <point x="477" y="327"/>
      <point x="143" y="342"/>
      <point x="142" y="197" type="curve" smooth="yes"/>
      <point x="142" y="125"/>
      <point x="209" y="92"/>
      <point x="272" y="93" type="curve" smooth="yes"/>
      <point x="336" y="92"/>
      <point x="401" y="116"/>
      <point x="445" y="162" type="curve"/>
      <point x="506" y="88" type="line"/>
      <point x="449" y="22"/>
      <point x="361" y="-12"/>
      <point x="275" y="-12" type="curve" smooth="yes"/>
      <point x="141" y="-12"/>
      <point x="23" y="50"/>
      <point x="23" y="199" type="curve" smooth="yes"/>
      <point x="24" y="429"/>
      <point x="364" y="424"/>
      <point x="364" y="536" type="curve" smooth="yes"/>
      <point x="364" y="591"/>
      <point x="294" y="608"/>
      <point x="251" y="608" type="curve" smooth="yes"/>
      <point x="206" y="608"/>
      <point x="161" y="598"/>
    </contour>
  </outline>
</glyph>
<glyph name="uni20B8" format="1">
  <advance width="409" height="962"/>
  <unicode hex="20B8"/>
  <outline>
    <contour>
      <point x="259" y="435" type="line"/>
      <point x="259" y="0" type="line"/>
      <point x="149" y="0" type="line"/>
      <point x="149" y="435" type="line"/>
      <point x="3" y="435" type="line"/>
      <point x="3" y="546" type="line"/>
      <point x="406" y="546" type="line"/>
      <point x="406" y="435" type="line"/>
    </contour>
    <contour>
      <point x="3" y="590" type="line"/>
      <point x="3" y="700" type="line"/>
      <point x="406" y="700" type="line"/>
      <point x="406" y="590" type="line"/>
    </contour>
  </outline>
</glyph>
<glyph name="Y_upper_alt" format="1">
  <advance width="495" height="962"/>
  <unicode hex="9997"/>
  <outline>
    <contour>
      <point x="302" y="316" type="line"/>
      <point x="302" y="0" type="line"/>
      <point x="190" y="0" type="line"/>
      <point x="190" y="316" type="line"/>
      <point x="10" y="700" type="line"/>
      <point x="127" y="700" type="line"/>
      <point x="246" y="434" type="line"/>
      <point x="365" y="700" type="line"/>
      <point x="483" y="700" type="line"/>
    </contour>
  </outline>
</glyph>
<glyph name="t_t" format="1">
  <advance width="453" height="962"/>
  <outline>
    <component base="t" xOffset="201"/>
    <contour>
      <point x="154" y="132" type="line" smooth="yes"/>
      <point x="154" y="87"/>
      <point x="181" y="75"/>
      <point x="227" y="75" type="curve"/>
      <point x="194" y="-13" type="line"/>
      <point x="93" y="-11"/>
      <point x="42" y="38"/>
      <point x="42" y="132" type="curve" smooth="yes"/>
      <point x="42" y="700" type="line"/>
      <point x="154" y="700" type="line"/>
      <point x="154" y="500" type="line"/>
      <point x="249" y="500" type="line"/>
      <point x="249" y="399" type="line"/>
      <point x="154" y="399" type="line"/>
    </contour>
  </outline>
</glyph>
